# xmcd
# 
# Track frame offsets:
#     150
#     26517
#     55222
#     78760
#     105884
#     127400
#     152614
#     180397
# 
# Disc length: 2751
# 
# Revision: 1
# Processed by: cddbd v1.5.2PL0 Copyright (c) Steve Scherf et al.
# Submitted via: fre:ac v1.0.31
# 
DISCID=560abd08
DTITLE=黃舒駿 - 花見素顔 Mmusic for Women
DYEAR=0
DGENRE=New Age
TTITLE0=晝寢覺山 daylight beyond the moubtain...
TTITLE1=沁溢若手流星 meteors falling...
TTITLE2=濤音國度邊境之西 the west boundary of wave coubtry...
TTITLE3=尋海芋踊子 looking for the calla dancer...
TTITLE4=行過雪門 walk through the snowing gate...
TTITLE5=櫻和歌裡的俳諧 poem of cherry blossom...
TTITLE6=青嵐梳 beauty in blue mist...
TTITLE7=瀧 waterfall...
EXTD=
EXTT0=
EXTT1=
EXTT2=
EXTT3=
EXTT4=
EXTT5=
EXTT6=
EXTT7=
PLAYORDER=
